<!-- Generator: Adobe Illustrator 19.2.0, SVG Export Plug-In  -->
<svg version="1.1"
	 xmlns="http://www.w3.org/2000/svg" xmlns:xlink="http://www.w3.org/1999/xlink" xmlns:a="http://ns.adobe.com/AdobeSVGViewerExtensions/3.0/"
	 x="0px" y="0px" width="672.5px" height="146.1px" viewBox="0 0 672.5 146.1" style="enable-background:new 0 0 672.5 146.1;"
	 xml:space="preserve">
<style type="text/css">
	.st0{fill:#059BD2;}
	.st1{fill-rule:evenodd;clip-rule:evenodd;fill:#FC6600;}
	.st2{fill:#FC6600;}
</style>
<defs>
</defs>
<path class="st0" d="M68.4,110c0,0-7.1-8.7-11.3-13.4l-5.9,13.9c8.5,12.6,14.1,23.5,17.2,28.7c6-10.2,20.7-40.4,51-68.7l-3.4-7.9
	C96.3,77.2,79.5,95.8,68.4,110"/>
<path class="st1" d="M372,112.9c0,8.1,4.7,12.3,12.2,13.5v19.7c-22.4-0.3-34.3-11.1-34.3-31.6V0H372V112.9z"/>
<path class="st1" d="M441.4,42.6c-27.7,0-49.6,22.7-49.6,51.4c0,28.7,21.2,51.4,47.7,51.4c13.5,0,24.3-5.1,30.7-12.5l1.2,0.4v10.1
	h22.2V44.6h-22.2v6.9l-1,0.4C463.7,46.4,454.6,42.6,441.4,42.6 M444.1,126.9c-16.6,0-30.3-14.4-30.3-32.8
	c0-18.6,13.7-32.8,30.3-32.8c10.9,0,20.4,3.2,27.1,8.3v42.3C465.5,122.7,455.2,126.9,444.1,126.9"/>
<path class="st1" d="M511.9,143.7H534V74.5c6.9-7.1,16.6-11.7,27.9-11.7h4.7V42.6h-2.8c-12.1,0-22.2,5.7-28.7,13.6l-1.2-0.4V44.6
	h-22.1V143.7z"/>
<path class="st1" d="M279.7,42.6C252,42.6,230,65.4,230,94c0,28.7,21.2,51.4,47.7,51.4c13.4,0,24.3-5.1,30.7-12.5l1.2,0.4v10.1h22.2
	V44.6h-22.2v6.9l-1,0.4C302,46.4,292.9,42.6,279.7,42.6 M282.4,126.9c-16.6,0-30.3-14.4-30.3-32.8c0-18.6,13.6-32.8,30.3-32.8
	c10.9,0,20.4,3.2,27.1,8.3v42.3C303.8,122.7,293.5,126.9,282.4,126.9"/>
<path class="st1" d="M620.5,42.6c-27.7,0-49.6,22.7-49.6,51.4c0,28.7,21.2,51.4,47.7,51.4c13.4,0,24.3-5.1,30.7-12.5l1.2,0.4v10.1
	h22.2V44.6h-22.2v6.9l-1,0.4C642.8,46.4,633.7,42.6,620.5,42.6 M623.2,126.9c-16.6,0-30.2-14.4-30.2-32.8
	c0-18.6,13.6-32.8,30.2-32.8c10.9,0,20.4,3.2,27.1,8.3v42.3C644.6,122.7,634.3,126.9,623.2,126.9"/>
<path class="st2" d="M112.6,143.3h24.1l-21.2-50.8c-6.2,6.6-11.5,13.1-16.2,19.3L112.6,143.3z"/>
<polygon class="st2" points="208.4,44.7 177.5,117 177.2,117 177,117 176.9,117 176.8,117 176.7,117 176.5,117 176.3,117 
	145.4,44.7 121.5,44.7 165.6,143.3 165.6,143.3 165.9,143.3 187.9,143.3 188.1,143.3 188.1,143.3 232.2,44.7 "/>
<path class="st2" d="M78.9,5.3h-0.1h-21h-0.1L0,143.3h24.1l41.7-98.4l2-5.3h1.1l2,5.3l12.4,29.2c5.5-5.5,11.5-10.9,17.8-16L78.9,5.3
	z"/>
</svg>
