<?xml version="1.0" encoding="utf-8"?>
<!-- Generator: Adobe Illustrator 16.0.0, SVG Export Plug-In . SVG Version: 6.00 Build 0)  -->
<!DOCTYPE svg PUBLIC "-//W3C//DTD SVG 1.1//EN" "http://www.w3.org/Graphics/SVG/1.1/DTD/svg11.dtd">
<svg version="1.1" id="Layer_1" xmlns="http://www.w3.org/2000/svg" xmlns:xlink="http://www.w3.org/1999/xlink" x="0px" y="0px"
	 width="360px" height="360px" viewBox="0 0 360 360" enable-background="new 0 0 360 360" xml:space="preserve">
<g>
	<g>
		<path d="M76.215,98.105V63.604H47.313v34.502H33.912V26.901h13.401v23.601h28.902V26.901h13.4v71.204H76.215z"/>
		<path d="M190.013,96.305c-4.4-1.9-8.4-4.6-11.801-8c-3.5-3.4-6.2-7.4-8-11.9c-2-4.601-3-9.401-3-14.501
			c0-20.501,16.801-37.202,37.302-37.202c5.8,0,11.601,1.4,16.701,4c5.1,2.5,9.7,6.4,13.101,11.001l1.6,2l-10.7,7.9l-1.5-2
			c-4.5-6.101-11.501-9.601-19.201-9.601c-13.201,0-24.001,10.701-24.001,23.901c0,13.301,10.8,24.102,24.001,24.102
			c7.601,0,14.601-3.5,19.201-9.601l1.5-1.9l10.601,7.801l-1.601,2c-3.5,4.7-7.9,8.4-13.101,11c-5.1,2.6-10.801,3.9-16.601,3.9
			C199.514,99.206,194.613,98.206,190.013,96.305z"/>
		<path d="M298.313,98.105l-26.501-37.202l-11.4,10.801v26.401H247.11V26.901h13.302v26.701l28.401-26.701h19.201l-26.102,24.701
			l33.102,46.503H298.313z"/>
	</g>
	<g>
		<path d="M34.441,191.105v-71.204h23.901c20.101,0,36.502,16.001,36.502,35.602s-16.401,35.602-36.502,35.602H34.441z
			 M58.343,178.005c12.801,0,23.201-10.101,23.201-22.501s-10.4-22.501-23.201-22.501H47.742v45.003H58.343z"/>
		<path d="M108.24,164.404v-44.502h13.301v44.502c0,8,6.5,14.601,14.401,14.601c8,0,14.401-6.601,14.401-14.601v-44.502h13.401
			v44.502c0,7.4-2.9,14.401-8.101,19.601c-5.3,5.2-12.301,8.101-19.701,8.101C120.641,192.105,108.24,179.705,108.24,164.404z"/>
		<path d="M231.442,191.105l-26.502-37.202l-11.4,10.801v26.401h-13.301v-71.204h13.301v26.701l28.401-26.701h19.201l-26.102,24.701
			l33.103,46.503H231.442z"/>
		<path d="M258.139,191.105v-71.204h46.902v13h-33.502v10.5h29.202v13.301h-29.202v21.201h32.602v13.201H258.139z"/>
	</g>
	<polygon points="137.613,26.901 125.513,26.901 98.111,98.105 112.412,98.105 119.812,78.904 131.613,48.402 143.414,78.904 
		150.714,98.105 165.115,98.105 	"/>
	<g>
		<path d="M49.846,224.601l1.75,1.3c-1.774,2.374-4.499,3.725-7.423,3.725c-5.148,0-9.323-4.175-9.323-9.323
			c0-5.124,4.174-9.298,9.323-9.298c2.949,0,5.674,1.375,7.448,3.749l-1.774,1.3c-1.35-1.824-3.424-2.85-5.674-2.85
			c-3.949,0-7.123,3.175-7.123,7.099c0,3.949,3.174,7.123,7.123,7.123C46.397,227.425,48.472,226.4,49.846,224.601z"/>
		<path d="M77.045,220.327c0,5.123-4.199,9.272-9.323,9.272c-5.124,0-9.298-4.149-9.298-9.272c0-5.149,4.174-9.323,9.298-9.323
			C72.846,211.004,77.045,215.178,77.045,220.327z M74.771,220.327c0-3.899-3.149-7.124-7.048-7.124s-7.048,3.225-7.048,7.124
			c0,3.874,3.149,7.073,7.048,7.073S74.771,224.201,74.771,220.327z"/>
		<path d="M84.549,211.554h5.749c5.049,0,9.148,3.999,9.148,8.898c0,4.898-4.099,8.897-9.148,8.897h-5.749V211.554z M97.221,220.452
			c0-3.675-3.099-6.724-6.923-6.724h-3.524v13.446h3.524C94.122,227.175,97.221,224.126,97.221,220.452z"/>
		<path d="M107.125,211.554h11.247v2.149h-8.998v4.174h7.848v2.225h-7.848v7.049h8.773v2.199h-11.022V211.554z"/>
		<path d="M136.599,211.554h11.248v2.175h-8.998v4.174h4.949v2.199h-4.949v9.248h-2.25V211.554z"/>
		<path d="M172.169,220.327c0,5.123-4.199,9.272-9.323,9.272c-5.124,0-9.298-4.149-9.298-9.272c0-5.149,4.174-9.323,9.298-9.323
			C167.971,211.004,172.169,215.178,172.169,220.327z M169.895,220.327c0-3.899-3.149-7.124-7.048-7.124s-7.048,3.225-7.048,7.124
			c0,3.874,3.149,7.073,7.048,7.073S169.895,224.201,169.895,220.327z"/>
		<path d="M193.745,229.35h-2.574l-6.799-9.348h-2.55v9.348h-2.149v-17.796h6.173c1.125,0,2.175,0.45,2.975,1.25
			s1.25,1.85,1.25,2.975c0,1.974-1.375,3.624-3.2,4.099L193.745,229.35z M181.822,217.853h4.024c1.149,0,2.075-0.925,2.075-2.074
			c0-1.15-0.926-2.075-2.075-2.075h-4.024V217.853z"/>
		<path d="M227.47,217.902v7.873c-1.774,2.375-4.574,3.85-7.523,3.85c-5.124,0-9.298-4.175-9.298-9.323
			c0-5.124,4.174-9.298,9.298-9.298c2.524,0,4.874,1,6.599,2.75l-1.649,1.449c-1.3-1.3-3.074-2-4.949-2
			c-3.924,0-7.099,3.175-7.099,7.099c0,3.949,3.175,7.123,7.099,7.123c2.074,0,3.974-0.874,5.349-2.399v-4.924h-5.224v-2.199H227.47
			z"/>
		<path d="M253.469,220.327c0,5.123-4.199,9.272-9.323,9.272s-9.298-4.149-9.298-9.272c0-5.149,4.174-9.323,9.298-9.323
			S253.469,215.178,253.469,220.327z M251.193,220.327c0-3.899-3.148-7.124-7.048-7.124s-7.048,3.225-7.048,7.124
			c0,3.874,3.148,7.073,7.048,7.073S251.193,224.201,251.193,220.327z"/>
		<path d="M278.818,220.327c0,5.123-4.199,9.272-9.323,9.272s-9.298-4.149-9.298-9.272c0-5.149,4.174-9.323,9.298-9.323
			S278.818,215.178,278.818,220.327z M276.543,220.327c0-3.899-3.148-7.124-7.048-7.124s-7.048,3.225-7.048,7.124
			c0,3.874,3.148,7.073,7.048,7.073S276.543,224.201,276.543,220.327z"/>
		<path d="M286.321,211.554h5.748c5.049,0,9.147,3.999,9.147,8.898c0,4.898-4.099,8.897-9.147,8.897h-5.748V211.554z
			 M298.993,220.452c0-3.675-3.1-6.724-6.924-6.724h-3.524v13.446h3.524C295.894,227.175,298.993,224.126,298.993,220.452z"/>
	</g>
</g>
</svg>
